<?xml version="1.0" encoding="UTF-8" standalone="no"?>
<svg width="251px" height="251px" viewBox="0 0 251 251" version="1.1" xmlns="http://www.w3.org/2000/svg" xmlns:xlink="http://www.w3.org/1999/xlink">
    <!-- Generator: Sketch 49.2 (51160) - http://www.bohemiancoding.com/sketch -->
    <title>plaid-logo</title>
    <desc>Created with Sketch.</desc>
    <defs></defs>
    <g id="Page-1" stroke="none" stroke-width="1" fill="none" fill-rule="evenodd">
        <g id="plaid-logo" fill="#005CB9" fill-rule="nonzero">
            <path d="M139.8,208.3 L165.8,182.7 L198.4,215.8 L157.6,226.4 L139.8,208.3 Z M50.2,214.7 L83.3,182.1 L108.9,208.1 L90.8,225.9 L50.2,214.7 Z M181.4,167.4 L207.4,141.8 L225.2,159.9 L214,200.5 L181.4,167.4 Z M98.9,166.7 L124.9,141.1 L150.5,167.1 L124.5,192.7 L98.9,166.7 Z M24.3,158.3 L42.4,140.5 L68,166.5 L34.9,199.1 L24.3,158.3 Z M140.5,125.8 L166.5,100.2 L192.1,126.2 L166.1,151.8 L140.5,125.8 Z M58,125.1 L84,99.5 L109.6,125.5 L83.6,151.1 L58,125.1 Z M99.6,84.2 L125.6,58.6 L151.2,84.6 L125.2,110.2 L99.6,84.2 Z M182.1,84.9 L215.2,52.3 L225.8,93.1 L207.7,110.9 L182.1,84.9 Z M24.8,91.4 L36,50.8 L68.6,83.9 L42.6,109.5 L24.8,91.4 Z M141.2,43.3 L159.3,25.5 L199.9,36.7 L166.8,69.3 L141.2,43.3 Z M51.6,35.5 L92.4,24.9 L110.2,43 L84.2,68.6 L51.6,35.5 Z M99.1,0.6 L21.7,20.7 L0.4,97.8 L27.1,124.9 L0,151.6 L20,229 L97.1,250.3 L124.2,223.6 L150.9,250.7 L228.3,230.6 L249.6,153.5 L223,126.5 L250.1,99.8 L230,22.4 L152.9,1 L125.8,27.7 L99.1,0.6 Z"></path>
        </g>
    </g>
</svg>